<?xml version="1.0" encoding="UTF-8"?>
<svg id="Layer_2" data-name="Layer 2" xmlns="http://www.w3.org/2000/svg" viewBox="0 0 314.09 267.03">
  <defs>
    <style>
      .cls-1 {
        fill: #fff;
      }

      .cls-2 {
        fill: #004585;
      }

      .cls-3 {
        fill: #fec62d;
      }

      .cls-4 {
        fill: #e4012b;
      }
    </style>
  </defs>
  <g id="Layer_1-2" data-name="Layer 1">
    <circle class="cls-2" cx="60.44" cy="206.59" r="60.44"/>
    <circle class="cls-3" cx="253.16" cy="60.94" r="60.94"/>
    <circle class="cls-4" cx="150.11" cy="121.87" r="116.42"/>
    <g>
      <path class="cls-1" d="M129.78,119.55c9.3,5.5,13.95,12.85,13.95,22.05,0,4-.78,7.83-2.33,11.48-1.55,3.65-3.85,6.97-6.9,9.97-3.05,3-7.08,5.38-12.08,7.12-5,1.75-10.65,2.62-16.95,2.62h-34.8c-6.1,0-10.48-1.55-13.12-4.65-2.65-3.1-3.97-8.65-3.97-16.65v-63.45c0-3.4.6-6.4,1.8-9,1.2-2.6,3.12-4.7,5.77-6.3,2.65-1.6,5.82-2.4,9.52-2.4h34.35c10,.1,18.32,2.83,24.98,8.18,6.65,5.35,9.98,12.22,9.98,20.62,0,2.7-.23,5.08-.68,7.12-.45,2.05-1.12,3.88-2.02,5.47-.9,1.6-1.95,3-3.15,4.2s-2.65,2.4-4.35,3.6ZM109.38,99.15c0-4.2-1.63-7.07-4.88-8.62-3.25-1.55-8.68-2.33-16.27-2.33v22.95c4.7,0,8.52-.35,11.48-1.05,2.95-.7,5.3-1.92,7.05-3.67,1.75-1.75,2.62-4.17,2.62-7.27ZM111.33,139.2c0-3.3-.85-5.85-2.55-7.65-1.7-1.8-4.15-3.08-7.35-3.83-3.2-.75-7.6-1.12-13.2-1.12v25.95c7.8,0,13.6-.97,17.4-2.92,3.8-1.95,5.7-5.42,5.7-10.42Z"/>
      <path class="cls-1" d="M226.98,123.6c5.1.6,9.75,3.18,13.95,7.73,4.2,4.55,6.3,10.38,6.3,17.48s-.5,12.03-1.5,15.37c-1,3.35-2.7,5.65-5.1,6.9-2.4,1.25-6.05,1.88-10.95,1.88-3.9,0-7.12-.55-9.67-1.65-2.55-1.1-4.42-2.72-5.62-4.88-1.2-2.15-1.8-4.92-1.8-8.32,0-4.4-.18-8.07-.53-11.03-.35-2.95-.8-5.3-1.35-7.05-.55-1.75-1.38-3.08-2.48-3.98-1.1-.9-2.18-1.47-3.23-1.73-1.05-.25-2.48-.38-4.27-.38h-7.95v16.65c0,8-1.55,13.73-4.65,17.18-3.1,3.45-7.65,5.17-13.65,5.17s-10.08-1.62-12.83-4.88c-2.75-3.25-4.12-8.72-4.12-16.42v-62.55c0-6.3,1.17-11.02,3.52-14.17,2.35-3.15,6.17-4.73,11.48-4.73,3.1,0,5.67.2,7.73.6,2.05.4,4.05,1.12,6,2.17,1.95,1.05,3.4,2.7,4.35,4.95.95,2.25,1.42,5.13,1.42,8.62,0,3.1-.03,6.58-.07,10.42-.05,3.85-.08,6.58-.08,8.18,0,1.3.32,2.4.98,3.3.65.9,1.65,1.63,3,2.17,1.35.55,3.02.83,5.02.83,4.3,0,7.17-1.7,8.62-5.1,1.45-3.4,2.17-10.35,2.17-20.85,0-5.2,1.4-9.05,4.2-11.55,2.8-2.5,7.3-3.75,13.5-3.75,6.7,0,11.2,1.3,13.5,3.9,2.3,2.6,3.45,7.25,3.45,13.95,0,11-1.93,19.53-5.78,25.57-3.85,6.05-8.38,9.38-13.57,9.98Z"/>
    </g>
  </g>
</svg>